<svg xmlns="http://www.w3.org/2000/svg" width="16" height="15" viewBox="0 0 16 15"><defs><linearGradient id="vohja" x1="6.14" x2="6.14" y1="2.94" y2="14.69" gradientUnits="userSpaceOnUse"><stop offset="0" stop-color="#f2c419"/><stop offset="1" stop-color="#ff7767"/></linearGradient><linearGradient id="vohjb" x1="9.87" x2="9.87" y1="0" y2="11.76" gradientUnits="userSpaceOnUse"><stop offset="0" stop-color="#f2c419"/><stop offset="1" stop-color="#ff7767"/></linearGradient></defs><g><g><g><path fill="url(#vohja)" d="M9.6 7.733H2.667a.267.267 0 1 1 0-.533H9.6a.267.267 0 1 1 0 .533zm0 1.6H2.667a.267.267 0 1 1 0-.533H9.6a.267.267 0 1 1 0 .533zM2.667 5.6h3.466a.267.267 0 1 1 0 .534H2.667a.267.267 0 1 1 0-.534zm8.018-2.667l-9.104.02C.71 2.952 0 3.66 0 4.532v5.638c0 .872.71 1.581 1.581 1.581H3.2v2.667a.267.267 0 0 0 .464.18l2.588-2.847 4.433-.019c.872 0 1.582-.709 1.582-1.58V4.514c0-.872-.71-1.581-1.582-1.581z"/></g><g><path fill="url(#vohjb)" d="M14.42.019L5.314 0c-.872 0-1.582.71-1.582 1.581v.834l6.95-.015c1.168 0 2.117.949 2.117 2.115v6.194l.87.956a.267.267 0 0 0 .463-.18V8.82h.286C15.29 8.82 16 8.11 16 7.238V1.6C16 .728 15.29.02 14.42.02z"/></g></g></g></svg>