<svg xmlns="http://www.w3.org/2000/svg" width="29" height="22" viewBox="0 0 29 22"><defs><linearGradient id="bf98a" x1="26" x2="26" y1="2" y2="20" gradientUnits="userSpaceOnUse"><stop offset="0" stop-color="#f2c419"/><stop offset="1" stop-color="#ff7767"/></linearGradient><linearGradient id="bf98b" x1="14.5" x2="14.5" y1="0" y2="22" gradientUnits="userSpaceOnUse"><stop offset="0" stop-color="#f2c419"/><stop offset="1" stop-color="#ff7767"/></linearGradient><clipPath id="bf98c"><path fill="#fff" d="M6.5 2c0-1 1-2 2-2h12c1 0 2 1 2 2v18c0 1-1 2-2 2h-12c-1 0-2-1-2-2z"/></clipPath><linearGradient id="bf98d" x1="3" x2="3" y1="2" y2="20" gradientUnits="userSpaceOnUse"><stop offset="0" stop-color="#f2c419"/><stop offset="1" stop-color="#ff7767"/></linearGradient></defs><g><g><path fill="url(#bf98a)" d="M23.5 2h3a2 2 0 0 1 2 2v14a2 2 0 0 1-2 2h-3z"/></g><g><path fill="url(#bf98b)" d="M6.5 2c0-1 1-2 2-2h12c1 0 2 1 2 2v18c0 1-1 2-2 2h-12c-1 0-2-1-2-2z"/><path fill="none" stroke="#fff" stroke-miterlimit="50" stroke-width="2" d="M6.5 2c0-1 1-2 2-2h12c1 0 2 1 2 2v18c0 1-1 2-2 2h-12c-1 0-2-1-2-2z" clip-path="url(&quot;#bf98c&quot;)"/></g><g><path fill="url(#bf98d)" d="M.5 4c0-1 1-2 2-2h3v18h-3c-1 0-2-1-2-2z"/></g></g></svg>