<svg xmlns="http://www.w3.org/2000/svg" xmlns:xlink="http://www.w3.org/1999/xlink" width="50.849" height="50.816" viewBox="0 0 50.849 50.816">
  <defs>
    <linearGradient id="linear-gradient" x1="0.5" x2="0.5" y2="1" gradientUnits="objectBoundingBox">
      <stop offset="0" stop-color="#f2c419"/>
      <stop offset="1" stop-color="#ff7767"/>
    </linearGradient>
  </defs>
  <g id="electric-guitar" transform="translate(-4.72 -4.747)">
    <path id="Tracé_46" data-name="Tracé 46" d="M25.769,42.961a4.843,4.843,0,0,0,3.554,2.064l3.389,3.226a3.626,3.626,0,0,0,2.746,3.054c.356.116.755.214,1.186.32,2.1.5,2.894,2.4-1.126,4.619-.283.155-.554.309-.815.46-2.5,1.445-3.889,2.594-4.671,3.943a4.333,4.333,0,0,0-.64,1.552s0,.006,0,.009a4.076,4.076,0,0,0-.082.922,9.33,9.33,0,0,1-2.364,6.748c-4.7,4.881-10.507,3.965-15.554-.367S4.809,58.689,8.667,54.193a9.991,9.991,0,0,1,6.306-3.362,4.338,4.338,0,0,0,2.645-1.394c2.336-3.7,2.776-11.773,5.234-12.507,1.973-.591,2.032,2.379,2.138,3.278a6.444,6.444,0,0,0,.779,2.754Z" transform="translate(-1.017 -18.332)" fill="url(#linear-gradient)"/>
    <path id="Tracé_47" data-name="Tracé 47" d="M52.166,40.377l-3.544-3.042L69.331,13.68l3.077,2.641Z" transform="translate(-25.068 -5.1)" fill="#1c1c1c"/>
    <path id="Tracé_48" data-name="Tracé 48" d="M90.435,12.746,92.03,8.277,103.762,6.5s-1.046,2.414-1.475,3.432c-2.371,1.521-8.638,5.373-8.638,5.373Z" transform="translate(-48.943 -1.001)" fill="#1c1c1c"/>
    <g id="Groupe_64" data-name="Groupe 64" transform="translate(4.72 4.747)">
      <path id="Tracé_49" data-name="Tracé 49" d="M25.819,109.775a.751.751,0,0,0,.26,1.03,9.3,9.3,0,0,0,4.737,1.473,6.912,6.912,0,0,0,4.44-1.65.751.751,0,1,0-.938-1.173,5.469,5.469,0,0,1-3.5,1.321,7.833,7.833,0,0,1-3.967-1.26.751.751,0,0,0-1.03.26Z" transform="translate(-16.707 -64.442)" fill="#1c1c1c"/>
      <path id="Tracé_50" data-name="Tracé 50" d="M33.635,90.833a.751.751,0,1,0,.978-1.14L31.07,86.651a.751.751,0,0,0-.978,1.139Z" transform="translate(-19.058 -51.411)" fill="#1c1c1c"/>
      <path id="Tracé_51" data-name="Tracé 51" d="M40.329,83.785a.751.751,0,0,0,.489-1.321l-3.544-3.042a.751.751,0,1,0-.978,1.139L39.841,83.6a.748.748,0,0,0,.488.181Z" transform="translate(-22.601 -47.283)" fill="#1c1c1c"/>
      <path id="Tracé_52" data-name="Tracé 52" d="M75.384,49.2,74.52,50.23a.751.751,0,1,0,1.149.967l.864-1.027a.751.751,0,0,0-1.148-.967Z" transform="translate(-44.475 -29.98)" fill="url(#linear-gradient)"/>
      <path id="Tracé_53" data-name="Tracé 53" d="M55.414,5.04a.752.752,0,0,0-.707-.284L49.788,5.5a.751.751,0,0,0,.225,1.485l3.58-.541c-.284.658-.62,1.44-.849,1.981-2.066,1.324-6.48,4.122-7.9,5.024l-2.385-1.9,1.2-3.6,2.377-.36A.751.751,0,1,0,45.805,6.1l-2.831.429a.752.752,0,0,0-.6.505L41,11.161,28.115,25.884a3.992,3.992,0,0,1-2.727-1.652,5.62,5.62,0,0,1-.655-2.365l-.009-.082c-.01-.082-.019-.181-.03-.3-.094-1-.251-2.684-1.323-3.407a1.986,1.986,0,0,0-1.747-.206c-1.79.534-2.559,3.385-3.449,6.685a30.582,30.582,0,0,1-1.837,5.491.751.751,0,1,0,1.339.68,31.45,31.45,0,0,0,1.947-5.778c.643-2.38,1.441-5.342,2.429-5.637.317-.1.434-.017.478.012.483.326.617,1.761.668,2.3.012.129.023.242.034.334l.009.081a7.013,7.013,0,0,0,.869,2.977,5.03,5.03,0,0,0,2.9,2.118l-4.027,4.6a.751.751,0,0,0,.076,1.064l3.544,3.042a.752.752,0,0,0,.489.181l.06,0a.75.75,0,0,0,.515-.265l3.718-4.419a4.166,4.166,0,0,0,2.819,2.345c.412.134.858.246,1.244.338.656.155,1.108.469,1.153.8.063.459-.545,1.373-2.463,2.429-.288.157-.563.314-.831.468-2.66,1.535-4.091,2.752-4.936,4.2a5.031,5.031,0,0,0-.727,1.752q-.008.028-.014.058a4.851,4.851,0,0,0-.1,1.083,8.639,8.639,0,0,1-2.154,6.214c-4.037,4.192-9.331,4.04-14.525-.418C5.9,46.348,4.787,40.35,8.219,36.349a9.185,9.185,0,0,1,5.844-3.1.751.751,0,1,0-.2-1.488,10.66,10.66,0,0,0-6.778,3.614c-4,4.663-2.824,11.55,2.8,16.378,2.96,2.541,6.029,3.814,8.935,3.814a10.494,10.494,0,0,0,7.651-3.495,10.108,10.108,0,0,0,2.574-7.289,3.342,3.342,0,0,1,.058-.708c.006-.02.01-.04.015-.06a3.523,3.523,0,0,1,.528-1.281l.023-.037c.7-1.207,1.973-2.27,4.4-3.668.257-.147.523-.3.8-.453,2.9-1.6,3.355-3.03,3.229-3.949A2.693,2.693,0,0,0,35.8,32.563c-.354-.086-.765-.188-1.132-.307A2.785,2.785,0,0,1,32.5,30.02l1.879-2.233a.751.751,0,1,0-1.149-.966l-2.139,2.542-4.078,4.848-2.4-2.052,4.29-4.9.005,0s.006-.009.01-.014L41.584,12.776l2.078,1.654-6.018,7.149a.751.751,0,0,0,1.149.967l6.32-7.507A.751.751,0,0,0,45.193,15c.062-.039,6.211-3.935,8.556-5.44a.749.749,0,0,0,.287-.341C54.465,8.2,55.507,5.8,55.507,5.8a.751.751,0,0,0-.094-.755Z" transform="translate(-4.72 -4.747)" fill="url(#linear-gradient)"/>
    </g>
  </g>
</svg>
