<svg xmlns="http://www.w3.org/2000/svg" xmlns:xlink="http://www.w3.org/1999/xlink" width="40.669" height="61.299" viewBox="0 0 40.669 61.299">
  <defs>
    <linearGradient id="linear-gradient" x1="0.5" x2="0.5" y2="1" gradientUnits="objectBoundingBox">
      <stop offset="0" stop-color="#f2c419"/>
      <stop offset="1" stop-color="#ff7767"/>
    </linearGradient>
    <linearGradient id="linear-gradient-8" x1="1.136" y1="0.551" x2="0.814" y2="0.235" xlink:href="#linear-gradient"/>
    <linearGradient id="linear-gradient-9" x1="1.554" y1="-1.233" xlink:href="#linear-gradient"/>
  </defs>
  <g id="maloik" transform="translate(-110.933)">
    <path id="Tracé_54" data-name="Tracé 54" d="M149.21,24.565h0V4.785a4.785,4.785,0,0,0-9.569,0v16.3l-19.138.448v-9.57a4.785,4.785,0,1,0-9.569,0v32.3a9.569,9.569,0,0,0,9.569,9.569V61.3h21.53V53.827a9.569,9.569,0,0,0,9.569-9.569V28.708A4.781,4.781,0,0,0,149.21,24.565Z" fill="url(#linear-gradient)"/>
    <g id="Groupe_65" data-name="Groupe 65" transform="translate(139.145)">
      <path id="Tracé_57" data-name="Tracé 57" d="M322.261,24.565h0V4.785A4.787,4.787,0,0,0,316.032.222a4.786,4.786,0,0,1,3.34,4.562v19.78h0a4.781,4.781,0,0,1,2.392,4.143v15.55a9.569,9.569,0,0,1-9.569,9.569V61.3h2.888V53.827a9.569,9.569,0,0,0,9.569-9.569V28.708A4.782,4.782,0,0,0,322.261,24.565Z" transform="translate(-312.196)" fill="url(#linear-gradient)"/>
    </g>
    <path id="Tracé_58" data-name="Tracé 58" d="M179.2,131.431a4.785,4.785,0,1,0,9.569,0v-7.177a4.785,4.785,0,0,0-9.569,0Z" transform="translate(-58.699 -102.723)" fill="url(#linear-gradient)"/>
    <path id="Tracé_59" data-name="Tracé 59" d="M204.475,119.469a4.781,4.781,0,0,0-1.444.222,4.786,4.786,0,0,1,3.34,4.562v7.177a4.786,4.786,0,0,1-3.34,4.562,4.787,4.787,0,0,0,6.229-4.562v-7.177A4.785,4.785,0,0,0,204.475,119.469Z" transform="translate(-79.188 -102.723)" fill="url(#linear-gradient)"/>
    <path id="Tracé_60" data-name="Tracé 60" d="M251.4,112.433c-2.642,0-3.934,6.966-3.934,4.323v-9.569a4.785,4.785,0,1,1,9.569,0v4.785Z" transform="translate(-117.395 -88.048)" fill="url(#linear-gradient)"/>
    <path id="Tracé_61" data-name="Tracé 61" d="M272.749,102.4a4.78,4.78,0,0,0-1.443.222,4.786,4.786,0,0,1,3.342,4.563v4.785h2.886v-4.785A4.784,4.784,0,0,0,272.749,102.4Z" transform="translate(-137.893 -88.048)" fill="url(#linear-gradient)"/>
    <g id="Groupe_68" data-name="Groupe 68" transform="translate(114.274 7.177)">
      <path id="Tracé_68" data-name="Tracé 68" d="M140.994,72.731V55.985a4.787,4.787,0,0,0-6.229-4.562,4.786,4.786,0,0,1,3.34,4.562l0,16.746a4.84,4.84,0,0,0,4.848,4.785,4.785,4.785,0,0,0,1.411-.212A4.786,4.786,0,0,1,140.994,72.731Z" transform="translate(-134.765 -51.2)" fill="url(#linear-gradient)"/>
      <path id="Tracé_69" data-name="Tracé 69" d="M240.824,250.12a1.083,1.083,0,0,1-1.083-1.083,13.063,13.063,0,0,1,11.961-13v-3.746a1.083,1.083,0,0,1,2.166,0v4.785a1.083,1.083,0,0,1-1.083,1.083,10.891,10.891,0,0,0-10.878,10.878A1.083,1.083,0,0,1,240.824,250.12Z" transform="translate(-225.026 -205.976)" fill="url(#linear-gradient-8)"/>
      <path id="Tracé_70" data-name="Tracé 70" d="M245.609,174.676a5.868,5.868,0,1,1,0-11.735h13.083a1.083,1.083,0,1,1,0,2.166H245.609a3.7,3.7,0,0,0,0,7.4h6.971a1.083,1.083,0,1,1,0,2.166Z" transform="translate(-225.026 -147.278)" fill="url(#linear-gradient-9)"/>
    </g>
  </g>
</svg>
