<svg xmlns="http://www.w3.org/2000/svg" xmlns:xlink="http://www.w3.org/1999/xlink" width="14.754" height="12.495" viewBox="0 0 14.754 12.495">
  <defs>
    <linearGradient id="linear-gradient" x1="0.5" x2="0.5" y2="1" gradientUnits="objectBoundingBox">
      <stop offset="0" stop-color="#f2c419"/>
      <stop offset="1" stop-color="#ff7767"/>
    </linearGradient>
  </defs>
  <g id="list-interface-symbol" transform="translate(0 -2.779)">
    <path id="Tracé_73" data-name="Tracé 73" d="M3.246,8.013V10.04a.61.61,0,0,1-.61.61H.61A.61.61,0,0,1,0,10.04V8.013A.61.61,0,0,1,.61,7.4H2.636A.61.61,0,0,1,3.246,8.013Zm10.9-.61H5.085a.61.61,0,0,0-.61.61V10.04a.611.611,0,0,0,.61.61h9.059a.61.61,0,0,0,.61-.61V8.013A.611.611,0,0,0,14.144,7.4ZM2.636,2.779H.61a.61.61,0,0,0-.61.61V5.415a.61.61,0,0,0,.61.61H2.636a.61.61,0,0,0,.61-.61V3.389A.61.61,0,0,0,2.636,2.779Zm11.508,0H5.085a.61.61,0,0,0-.61.61V5.415a.61.61,0,0,0,.61.61h9.059a.61.61,0,0,0,.61-.61V3.389A.611.611,0,0,0,14.144,2.779ZM2.636,12.028H.61a.61.61,0,0,0-.61.61v2.026a.609.609,0,0,0,.61.61H2.636a.609.609,0,0,0,.61-.61V12.638A.61.61,0,0,0,2.636,12.028Zm11.508,0H5.085a.61.61,0,0,0-.61.61v2.026a.61.61,0,0,0,.61.61h9.059a.609.609,0,0,0,.61-.61V12.638A.61.61,0,0,0,14.144,12.028Z" fill="url(#linear-gradient)"/>
  </g>
</svg>
